<?xml version="1.0" standalone="no"?>
<!DOCTYPE svg PUBLIC "-//W3C//DTD SVG 20010904//EN"
 "http://www.w3.org/TR/2001/REC-SVG-20010904/DTD/svg10.dtd">
<svg version="1.0" xmlns="http://www.w3.org/2000/svg"
 width="300.000000pt" height="300.000000pt" viewBox="0 0 300.000000 300.000000"
 preserveAspectRatio="xMidYMid meet">
<metadata>
Created by potrace 1.14, written by Peter Selinger 2001-2017
</metadata>
<g transform="translate(0.000000,300.000000) scale(0.100000,-0.100000)"
fill="#000000" stroke="none">
<path d="M0 1500 l0 -1500 1500 0 1500 0 0 1500 0 1500 -1500 0 -1500 0 0
-1500z m1351 1133 c10 -26 95 -269 214 -613 26 -74 62 -178 80 -230 46 -131
257 -739 349 -1005 42 -121 80 -230 86 -242 7 -16 5 -23 -6 -27 -23 -9 -327
-7 -340 2 -6 4 -45 108 -88 232 -43 124 -97 281 -121 350 -24 69 -62 179 -85
245 -87 252 -206 597 -244 703 -27 76 -30 74 -75 -58 -37 -105 -144 -413 -196
-560 -18 -52 -68 -194 -110 -315 -184 -529 -207 -590 -218 -597 -14 -9 -318
-11 -341 -2 -11 4 -13 11 -6 27 5 12 54 150 109 307 54 157 134 384 176 505
42 121 106 303 142 405 35 102 80 228 98 280 18 52 63 178 98 280 36 102 77
220 92 263 l28 77 174 0 173 0 11 -27z m1509 -150 c0 -30 -4 -46 -75 -318 -26
-99 -53 -205 -60 -235 -8 -30 -22 -89 -34 -130 -44 -164 -94 -357 -101 -390
-4 -19 -21 -87 -38 -150 -64 -238 -84 -316 -92 -350 -4 -19 -22 -89 -40 -155
-17 -66 -36 -142 -42 -168 -13 -59 -30 -69 -111 -65 l-62 3 -16 265 c-12 211
-13 274 -3 310 12 45 32 136 74 325 12 55 30 138 40 185 35 153 50 225 55 249
3 14 12 56 21 95 8 39 25 112 36 161 11 50 28 126 38 170 10 44 21 96 25 115
15 85 18 88 108 94 144 11 171 12 225 14 51 2 52 1 52 -25z m-1240 -103 c17
-42 147 -429 190 -565 26 -83 69 -210 90 -270 23 -64 106 -312 130 -390 10
-33 31 -94 45 -135 22 -64 28 -106 39 -280 7 -113 10 -212 5 -220 -5 -8 -9
-12 -9 -9 0 7 -42 129 -125 364 -31 88 -65 185 -75 215 -22 66 -153 444 -245
705 -37 105 -71 201 -75 215 -5 14 -38 110 -74 214 -36 104 -66 193 -66 198 0
5 34 8 76 6 l75 -3 19 -45z m-219 -1290 c21 -58 39 -111 39 -117 0 -10 -61
-13 -270 -13 -261 0 -270 1 -270 19 0 23 58 190 73 209 7 9 55 12 199 10 l190
-3 39 -105z"/>
</g>
</svg>
